<?xml version="1.0" encoding="utf-8"?>
<!-- Generator: Adobe Illustrator 21.1.0, SVG Export Plug-In . SVG Version: 6.00 Build 0)  -->
<svg version="1.1" id="Layer_1" xmlns="http://www.w3.org/2000/svg" xmlns:xlink="http://www.w3.org/1999/xlink" x="0px" y="0px"
	 viewBox="0 0 100 100" style="enable-background:new 0 0 100 100;" xml:space="preserve">
<style type="text/css">
	.st0{fill:#E53935;stroke:#FFC107;stroke-width:3;stroke-miterlimit:10;}
	.st1{fill:#FFFFFF;}
	.st2{fill:#FFC107;}
	.st3{fill:#E53935;}
	.st4{display:none;}
	.st5{display:inline;fill:#FFFFFF;}
</style>
<symbol  id="like" viewBox="-33.5 -33.5 67 67">
	<circle class="st0" cx="0" cy="0" r="32"/>
	<path class="st1" d="M-15.3,2.5h5.7c0.5,0,0.8-0.4,0.8-0.8v-16.3c0-0.5-0.4-0.8-0.8-0.8h-5.7c-0.5,0-0.8,0.4-0.8,0.8V1.6
		C-16.2,2.1-15.8,2.5-15.3,2.5z M-5.5-13.2h17.3c1.3,0,2.3,1,2.3,2.3l0,0c0,1-0.6,1.8-1.5,2.1l0,0h0.4c1.2,0,2.2,1.3,2.2,2.6l0,0
		c0,1.2-1,2.2-2.2,2.2h-0.4v0.2h1.2c1.2,0,2.2,1,2.2,2.2l0,0c0,1.2-1,2.2-2.2,2.2h-1.2v0.2h1.2c1.2,0,2.2,1,2.2,2.2l0,0
		c0,1.2-1,2.2-2.2,2.2h-2.2c-0.1,0-0.2,0-0.3,0c0,0-0.1,0-0.2,0h-7c-0.1,0-0.1,0.1,0,0.2C4.3,5.8,4.6,6.3,5,7s0.9,1.6,1.2,2.8
		s0.2,2.6,0,3.8c-0.2,1.1-0.6,2-1.1,2.5c-0.5,0.5-1.1,0.8-1.7,0.8c-0.6,0-1.3-0.1-1.7-0.5c-0.5-0.4-0.7-1.1-0.8-1.9
		c-0.1-0.9,0-1.9,0-2.6c0-0.6-0.2-0.9-0.6-1.2c-0.4-0.3-1.1-0.7-1.8-1.3c-0.6-0.6-1.2-1.3-1.9-2.1c-1-1.3-3.5-4.5-3.5-5.9v-13.2
		C-6.9-12.6-6.3-13.2-5.5-13.2z"/>
</symbol>
<path class="st2" d="M81.1,27.8c-0.2-0.5-0.7-0.7-1.2-0.7c-0.6,0-1.2,0.2-1.2,0.2L67.3,36c-1.1-1.4-2.4-2.7-3.9-3.7l8.1-11
	c0,0,0.7-1.9-0.4-2.4C58.9,16.4,55.5,8.4,49.5,8.4S40.5,16,27.8,19c-1.2,0.5-0.4,2.4-0.4,2.4L36,32.7c-1.4,1.1-2.7,2.4-3.7,3.9
	l-11-8.1c0,0-0.6-0.2-1.2-0.2c-0.5,0-0.9,0.1-1.2,0.7C16.4,41.1,8.4,44.5,8.4,50.5s7.6,9,10.6,21.7c0.2,0.5,0.7,0.7,1.2,0.7
	c0.6,0,1.2-0.2,1.2-0.2L32.7,64c1.1,1.4,2.4,2.7,3.9,3.7l-8.1,11c0,0-0.7,1.9,0.4,2.4c12.3,2.5,15.7,10.6,21.7,10.6s9-7.6,21.7-10.6
	c1.2-0.5,0.4-2.4,0.4-2.4L64,67.3c1.4-1.1,2.7-2.4,3.7-3.9l11,8.1c0,0,0.6,0.2,1.2,0.2c0.5,0,0.9-0.1,1.2-0.7
	c2.5-12.3,10.6-15.7,10.6-21.7C91.6,43.5,84,40.5,81.1,27.8z"/>
<path class="st3" d="M32.7,21.7c5.4-1.9,8.9-4.5,11.7-6.6c2.4-1.8,3.8-2.8,5.1-2.8s2.7,1,5.2,2.9c2.7,2.1,6.3,4.8,11.6,6.5l-6.2,8.4
	c-3-1.5-6.4-2.4-10.1-2.4c-3.9,0-7.5,1-10.6,2.7L32.7,21.7z"/>
<path class="st3" d="M21.7,67.3c-1.9-5.4-4.5-8.9-6.6-11.7c-1.8-2.4-2.8-3.8-2.8-5.1s1-2.7,2.9-5.2c2.1-2.7,4.8-6.3,6.5-11.6
	l8.4,6.2c-1.5,3-2.4,6.4-2.4,10.1c0,3.9,1,7.5,2.7,10.6L21.7,67.3z"/>
<path class="st3" d="M67.3,78.3c-5.4,1.9-8.9,4.5-11.7,6.6c-2.4,1.8-3.8,2.8-5.1,2.8s-2.7-1-5.2-2.9c-2.7-2.1-6.3-4.8-11.6-6.5
	l6.2-8.4c3,1.5,6.4,2.4,10.1,2.4c3.9,0,7.5-1,10.6-2.7L67.3,78.3z"/>
<path class="st3" d="M78.3,66.3l-8.4-6.2c1.5-3,2.4-6.4,2.4-10.1c0-3.9-1-7.5-2.7-10.6l8.8-6.6c1.9,5.4,4.5,8.9,6.6,11.7
	c1.8,2.4,2.8,3.8,2.8,5.1s-1,2.7-2.9,5.2C82.7,57.4,80,61,78.3,66.3z"/>
<use xlink:href="#like"  width="67" height="67" id="XMLID_1_" x="-33.5" y="-33.5" transform="matrix(0.6945 0 0 -0.6945 50 50.05)" style="overflow:visible;"/>
<g id="fire" class="st4">
	<path class="st5" d="M51.6,61.2c-0.8-2-1.3-3.8,0.3-5.9c1.7-2.1,4.5-5.3,5.3-8.1C62.5,56.1,53.5,61.2,51.6,61.2z"/>
	<path class="st5" d="M42.8,48.1c7.3-6,5.1-9.5,4-11.6c8.9,1.3,10.1,9,6.7,13.8c-3.4,4.7-6.1,5.6-3.8,11.1c-4-0.2-6.2-1.9-7.6-4.1
		C40.4,54.7,39.5,51.1,42.8,48.1z"/>
</g>
</svg>
