<svg xmlns="http://www.w3.org/2000/svg" xmlns:xlink="http://www.w3.org/1999/xlink" version="1.1" x="0px" y="0px" viewBox="0 0 29 30" xml:space="preserve"><g transform="translate(-330 -140)"><g xmlns="http://www.w3.org/2000/svg" xmlns:xlink="http://www.w3.org/1999/xlink"><path d="M341,148l-0.285-1h7.571L348,148h2l2-7h-2l-0.571,2h-9.857L339,141h-2l2,7H341z M349.143,144l-0.571,2h-8.143l-0.571-2    H349.143z"></path><path d="M355,153v-4h-21v4h-3v4h2v-3h1v10h6v-4h9v4h6v-10h1v3h2v-4H355z M337.5,162c-0.828,0-1.5-0.672-1.5-1.5    c0-0.829,0.672-1.5,1.5-1.5s1.5,0.671,1.5,1.5C339,161.328,338.328,162,337.5,162z M344,157h-8v-6h8V157z M351.5,162    c-0.828,0-1.5-0.672-1.5-1.5c0-0.829,0.672-1.5,1.5-1.5s1.5,0.671,1.5,1.5C353,161.328,352.328,162,351.5,162z M353,157h-8v-6h8    V157z"></path><path d="M348,161h-1v4h-1v-4h-1v4h-1v-4h-1v4h-1v-4h-1v4h-8v2h2v1c0,0.551,0.448,1,1,1h2c0.553,0,1-0.449,1-1v-1h11v1    c0,0.551,0.448,1,1,1h2c0.553,0,1-0.449,1-1v-1h2v-2h-8V161z"></path></g></g></svg>