<svg fill="#EC5D57" xmlns="http://www.w3.org/2000/svg" xmlns:xlink="http://www.w3.org/1999/xlink" version="1.1" x="0px" y="0px" viewBox="0 0 100 100" enable-background="new 0 0 100 100" xml:space="preserve"><g><path d="M81.1,27.8c-0.2-0.5-0.7-0.7-1.2-0.7c-0.6,0-1.2,0.2-1.2,0.2L67.3,36c-1.1-1.4-2.4-2.7-3.9-3.7l8.1-11c0,0,0.7-1.9-0.4-2.4   C58.9,16.4,55.5,8.4,49.5,8.4s-9,7.6-21.7,10.6c-1.2,0.5-0.4,2.4-0.4,2.4L36,32.7c-1.4,1.1-2.7,2.4-3.7,3.9l-11-8.1   c0,0-0.6-0.2-1.2-0.2c-0.5,0-0.9,0.1-1.2,0.7C16.4,41.1,8.4,44.5,8.4,50.5s7.6,9,10.6,21.7c0.2,0.5,0.7,0.7,1.2,0.7   c0.6,0,1.2-0.2,1.2-0.2L32.7,64c1.1,1.4,2.4,2.7,3.9,3.7l-8.1,11c0,0-0.7,1.9,0.4,2.4c12.3,2.5,15.7,10.6,21.7,10.6   s9-7.6,21.7-10.6c1.2-0.5,0.4-2.4,0.4-2.4L64,67.3c1.4-1.1,2.7-2.4,3.7-3.9l11,8.1c0,0,0.6,0.2,1.2,0.2c0.5,0,0.9-0.1,1.2-0.7   c2.5-12.3,10.6-15.7,10.6-21.7C91.6,43.5,84,40.5,81.1,27.8z M51.6,61.2c-0.8-2-1.3-3.8,0.3-5.9c1.7-2.1,4.5-5.3,5.3-8.1   C62.5,56.1,53.5,61.2,51.6,61.2z M42.8,48.1c7.3-6,5.1-9.5,4-11.6c8.9,1.3,10.1,9,6.7,13.8c-3.4,4.7-6.1,5.6-3.8,11.1   c-4-0.2-6.2-1.9-7.6-4.1C40.4,54.7,39.5,51.1,42.8,48.1z M32.7,21.7c5.4-1.9,8.9-4.5,11.7-6.6c2.4-1.8,3.8-2.8,5.1-2.8   c1.3,0,2.7,1,5.2,2.9c2.7,2.1,6.3,4.8,11.6,6.5l-6.2,8.4c-3-1.5-6.4-2.4-10.1-2.4c-3.9,0-7.5,1-10.6,2.7L32.7,21.7z M21.7,67.3   c-1.9-5.4-4.5-8.9-6.6-11.7c-1.8-2.4-2.8-3.8-2.8-5.1c0-1.3,1-2.7,2.9-5.2c2.1-2.7,4.8-6.3,6.5-11.6l8.4,6.2   c-1.5,3-2.4,6.4-2.4,10.1c0,3.9,1,7.5,2.7,10.6L21.7,67.3z M67.3,78.3c-5.4,1.9-8.9,4.5-11.7,6.6c-2.4,1.8-3.8,2.8-5.1,2.8   c-1.3,0-2.7-1-5.2-2.9c-2.7-2.1-6.3-4.8-11.6-6.5l6.2-8.4c3,1.5,6.4,2.4,10.1,2.4c3.9,0,7.5-1,10.6-2.7L67.3,78.3z M78.3,66.3   l-8.4-6.2c1.5-3,2.4-6.4,2.4-10.1c0-3.9-1-7.5-2.7-10.6l8.8-6.6c1.9,5.4,4.5,8.9,6.6,11.7c1.8,2.4,2.8,3.8,2.8,5.1   c0,1.3-1,2.7-2.9,5.2C82.7,57.4,80,61,78.3,66.3z"></path></g></svg>